<svg xmlns="http://www.w3.org/2000/svg" viewBox="0 0 512 512" width="512" height="512">
  <defs>
    <linearGradient id="bg" x1="0" y1="0" x2="0" y2="1">
      <stop offset="0" stop-color="#37a066"/>
      <stop offset="1" stop-color="#1f6e43"/>
    </linearGradient>
    <linearGradient id="leaf" x1="0" y1="0" x2="1" y2="1">
      <stop offset="0" stop-color="#8fe0a8"/>
      <stop offset="1" stop-color="#57c483"/>
    </linearGradient>
  </defs>
  <rect width="512" height="512" rx="112" fill="url(#bg)"/>
  <!-- leaves -->
  <g transform="translate(256 210)">
    <path d="M0 40 C -18 -30 -70 -70 -120 -70 C -110 -6 -66 40 0 44 Z" fill="url(#leaf)"/>
    <path d="M0 40 C 18 -30 70 -70 120 -70 C 110 -6 66 40 0 44 Z" fill="url(#leaf)"/>
    <path d="M0 48 C -12 -46 -34 -104 0 -150 C 34 -104 12 -46 0 48 Z" fill="#c3f4d3"/>
    <path d="M0 44 L0 92" stroke="#2f8f5b" stroke-width="10" stroke-linecap="round"/>
  </g>
  <!-- pot -->
  <g transform="translate(256 300)">
    <path d="M-96 0 L96 0 L74 150 C 70 176 50 190 24 190 L-24 190 C -50 190 -70 176 -74 150 Z" fill="#e88a3c"/>
    <path d="M-108 -14 L108 -14 L96 30 L-96 30 Z" fill="#f2a057"/>
  </g>
</svg>
